<svg version="1.1" id="Layer_1" xmlns="http://www.w3.org/2000/svg" xmlns:xlink="http://www.w3.org/1999/xlink" x="0px" y="0px" height="60px" width="65px"
	 viewBox="0 0 146.344 177.6" style="enable-background:new 0 0 146.344 177.6;" xml:space="preserve">
<style type="text/css">
	.st0{fill:#000;stroke:#000;stroke-miterlimit:100;}
	.st1{fill:#e8e8e8;}
</style>
<path id="XMLID_2_" class="st0" d="M54.324,117.75"/>
<path id="XMLID_3_" class="st0" d="M40.465,132"/>
<g id="XMLID_5_">
	<path id="XMLID_240_" class="st1" d="M7.361,66.228c-0.694,0-1.2-0.721-1.442-1.396c-0.288-0.8-0.085-2.145,0.017-2.596
		l1.126-5.162c0.255-1.169,0.407-2.368,0.453-3.561l0.204-5.357c0.072-0.553,0.055-1.154-0.053-1.742
		c-0.098-0.532-0.152-1.35-0.221-2.385c-0.107-1.631-0.241-3.662-0.628-5.926c-0.37-2.164-0.856-4.532-1.326-6.822
		c-0.768-3.738-1.493-7.27-1.731-9.889c-0.09-0.987,0.159-1.928,0.74-2.795c0.292-0.436,0.766-0.686,1.3-0.686
		c0.442,0,0.863,0.181,1.167,0.497c1.259,2.717,5.458,19.46,6.052,24.159c1.104,8.732,0.571,12.865-2.593,20.098
		C9.018,65.88,7.814,66.228,7.361,66.228z"/>
	<path id="XMLID_237_" class="st1" d="M5.8,18.411c0.283,0,0.546,0.102,0.751,0.288c1.286,2.908,5.386,19.296,5.972,23.931
		c1.091,8.624,0.565,12.702-2.555,19.834c-1.054,2.409-2.062,3.264-2.606,3.264c-0.352,0-0.743-0.428-0.972-1.065
		c-0.217-0.605-0.094-1.743,0.036-2.324l1.125-5.158c0.261-1.197,0.417-2.425,0.464-3.649l0.202-5.314
		c0.075-0.632,0.055-1.269-0.06-1.893c-0.093-0.503-0.149-1.348-0.213-2.326c-0.103-1.556-0.243-3.688-0.635-5.978
		c-0.371-2.171-0.858-4.542-1.329-6.836c-0.765-3.725-1.488-7.244-1.723-9.836c-0.079-0.871,0.142-1.702,0.658-2.472
		C5.113,18.58,5.435,18.411,5.8,18.411 M5.799,17.411c-0.659,0-1.312,0.305-1.715,0.908c-0.531,0.793-0.94,1.838-0.823,3.119
		c0.392,4.305,2.106,11.154,3.062,16.75c0.634,3.709,0.589,6.903,0.85,8.318c0.099,0.539,0.114,1.088,0.046,1.632l-0.204,5.357
		c-0.044,1.169-0.192,2.331-0.442,3.474l-1.125,5.158c0,0-0.399,1.762,0,2.875c0.354,0.986,1.045,1.727,1.913,1.727
		c1.018,0,2.279-1.02,3.522-3.863c3.163-7.23,3.753-11.49,2.631-20.36c-0.618-4.885-4.881-21.817-6.128-24.38
		C6.963,17.647,6.379,17.411,5.799,17.411L5.799,17.411z"/>
</g>
<g id="XMLID_7_">
	<path id="XMLID_235_" class="st1" d="M5.92,80.863c-0.188,0-0.421-0.051-0.555-0.443c-0.142-0.417-0.093-0.873,0.134-1.251
		c7.465-12.44,11.425-28.325,11.886-34.065C18.09,36.312,9.547,18.727,3.632,9.052c-0.007-0.012-0.17-0.32,0.099-1.76
		C4.017,5.76,4.674,4.948,5.74,4.809c0.087-0.011,0.172-0.017,0.254-0.017c1.062,0,1.89,0.929,2.626,1.933
		c1.806,2.46,15.336,23.674,15.828,34.734c0.865,10.153-10.357,36.538-18.107,39.32C6.188,80.834,6.046,80.863,5.92,80.863z"/>
	<path id="XMLID_232_" class="st1" d="M5.995,5.292c0.678,0,1.322,0.501,2.224,1.729c1.54,2.099,15.249,23.612,15.734,34.502
		c0.831,9.743-10.371,36.128-17.779,38.786c-0.131,0.047-0.215,0.054-0.281,0.06c-0.007-0.007-0.03-0.041-0.054-0.111
		c-0.095-0.277-0.062-0.581,0.089-0.833c7.508-12.512,11.491-28.502,11.956-34.283c0.77-9.586-8.665-27.9-13.792-36.298
		C4.074,8.749,4.038,8.369,4.222,7.384c0.321-1.721,1.057-2.011,1.583-2.08C5.869,5.296,5.933,5.292,5.995,5.292 M5.994,4.292
		c-0.104,0-0.21,0.007-0.319,0.021C3.997,4.532,3.454,6.046,3.239,7.201c-0.092,0.49-0.294,1.686-0.034,2.112
		c6.101,9.979,14.369,27.187,13.681,35.75C16.474,50.2,12.692,66.209,5.07,78.911c-0.303,0.505-0.368,1.112-0.178,1.67
		c0.186,0.545,0.568,0.782,1.028,0.782c0.187,0,0.387-0.039,0.592-0.113c7.921-2.843,19.306-29.625,18.438-39.813
		c-0.5-11.25-14.313-32.812-15.924-35.008C8.222,5.336,7.282,4.292,5.994,4.292L5.994,4.292z"/>
</g>
<g id="XMLID_9_">
	<path id="XMLID_230_" class="st1" d="M1.499,117.948c-0.197,0-0.463-0.122-0.75-0.344c-0.602-0.466-0.367-6.037,3.403-14.101
		c4.298-9.191,9.86-15.988,12.848-19.639c1-1.221,1.66-2.028,1.963-2.538c7.113-11.939,6.922-16.258,6.753-20.068
		c-0.059-1.33-0.114-2.585,0.182-4.078c3.569-18.031-1.83-37.169-1.885-37.36c-0.431-1.499-0.553-3.378-0.708-5.757
		c-0.191-2.943-0.428-6.587-1.376-10.994l3.552-2.237c0.438,2.936,2.173,13.73,5.162,22.413c0.971,2.82,2.661,24.769-0.02,40.001
		c-1.722,9.785-5.528,15.392-10.346,22.49c-1.382,2.036-2.811,4.141-4.292,6.497c-5.024,7.988-13.614,24.299-14.345,25.69
		C1.614,117.934,1.567,117.948,1.499,117.948z"/>
	<path id="XMLID_186_" class="st1" d="M25.102,1.663c0.583,3.744,2.283,13.655,5.068,21.746c0.962,2.795,2.628,24.594-0.039,39.751
		c-1.704,9.68-5.483,15.247-10.268,22.297c-1.384,2.039-2.815,4.148-4.302,6.511c-4.797,7.627-12.831,22.812-14.21,25.43
		c-0.061-0.029-0.139-0.075-0.233-0.142c-0.407-0.884,0.035-6.158,3.487-13.541c4.272-9.136,9.808-15.901,12.783-19.535
		c1.013-1.238,1.682-2.056,2.005-2.597c7.19-12.069,6.995-16.467,6.824-20.347c-0.06-1.355-0.112-2.525,0.172-3.959
		c3.594-18.153-1.669-36.81-1.895-37.596c-0.416-1.447-0.537-3.303-0.689-5.651c-0.187-2.883-0.418-6.435-1.314-10.724L25.102,1.663
		 M25.865,0l-4.5,2.833c1.792,8.083,1.154,13.602,2.167,17.125c0.958,3.333,5.125,20.708,1.875,37.125
		c-1.143,5.772,2.75,7.833-6.874,23.988c-1.173,1.969-9.126,10.012-14.834,22.22C0.181,110.815-0.635,117.167,0.443,118
		c0.449,0.347,0.8,0.448,1.056,0.448c0.359,0,0.533-0.198,0.533-0.198s9.101-17.365,14.375-25.75
		c6.629-10.54,12.469-16.44,14.708-29.167c2.75-15.625,0.963-37.452,0-40.25C27.615,12.917,25.865,0,25.865,0L25.865,0z"/>
</g>
<g id="XMLID_8_">
	<path id="XMLID_182_" class="st1" d="M1.944,135.873c-0.334-0.019-0.464-0.174-0.546-0.327
		c-1.005-1.863,1.902-10.255,13.406-27.771c0.238-0.363,0.56-0.839,0.952-1.42c5.093-7.541,20.59-30.488,21.754-51.327
		c0.301-5.388-0.517-29.496-1.736-35.933c-0.334-1.767,1.98-10.332,3.915-15.323c0.188-0.114,0.566-0.329,1.003-0.491
		c0.3-0.111,0.635-0.175,0.919-0.175c0.187,0,0.523,0.029,0.676,0.222c0.16,0.203,0.115,0.573,0.049,0.848
		C41.23,8.81,39.964,27.76,40.205,29.267c2.657,16.622,2.785,25.819,0.546,39.365c-0.011,0.063-0.023,0.122-0.042,0.184
		c-0.461,1.553-8.119,21.61-16.563,31.93c-5.872,7.177-11.958,17.891-16.401,25.714C5.135,131.056,2.666,135.401,1.944,135.873z"/>
	<path id="XMLID_177_" class="st1" d="M41.612,3.606c0.143,0,0.232,0.021,0.262,0.021c0.009,0,0.012-0.002,0.011-0.007
		c0,0.001,0.043,0.12-0.033,0.439c-1.114,4.663-2.383,23.764-2.14,25.286c2.647,16.561,2.775,25.721,0.546,39.205
		c-0.007,0.043-0.015,0.081-0.028,0.122c-0.459,1.545-8.075,21.497-16.471,31.757c-5.899,7.209-11.996,17.944-16.448,25.783
		c-2.258,3.975-4.586,8.075-5.482,9.079c-0.732-1.445,1.268-8.78,13.393-27.243c0.238-0.362,0.558-0.837,0.949-1.415
		c5.112-7.569,20.667-30.602,21.839-51.578c0.302-5.403-0.52-29.59-1.744-36.054c-0.288-1.52,1.8-9.606,3.828-14.887
		c0.188-0.107,0.465-0.251,0.773-0.365C41.112,3.658,41.384,3.606,41.612,3.606 M41.612,2.606c-0.37,0-0.763,0.083-1.093,0.206
		c-0.69,0.256-1.235,0.625-1.235,0.625c-1.96,5-4.368,13.807-4,15.75C36.48,25.513,37.325,49.376,37.011,55
		c-1.25,22.375-19.426,47.629-22.625,52.5C1.293,127.438-1.261,136.375,2.011,136.375c1.614,0,12.446-22.999,22.522-35.313
		c8.54-10.438,16.156-30.424,16.655-32.105c0.025-0.083,0.042-0.159,0.056-0.244C43.457,55.324,43.386,46,40.699,29.188
		C40.5,27.944,41.699,9,42.824,4.292C43.13,3.01,42.426,2.606,41.612,2.606L41.612,2.606z"/>
</g>
<g id="XMLID_10_">
	<path id="XMLID_175_" class="st1" d="M33.351,177.1c-4.887,0.001-9.542-1.919-11.53-2.738c-0.453-0.187-0.771-0.315-0.929-0.359
		c-0.91-0.251-2.081-0.362-3.796-0.362c-0.882,0-1.819,0.029-2.776,0.059c-0.986,0.03-1.994,0.062-2.981,0.062
		c-2.647,0-5.862-0.212-7.233-1.87c0.069-0.804,5.235-2.24,11.206-2.24c2.38,0,4.165,0.259,5.024,0.727
		c1.598,0.872,4.482,1.055,6.621,1.055c4.688,0,12.148-0.921,19.023-3.505c0.587-0.221,1.206-0.459,1.853-0.708
		c5-1.928,11.846-4.567,19.009-4.567c1.616,0,3.201,0.136,4.709,0.404c7.803,1.388,15.935,2.672,22.547,2.672
		c9.977,0,14.876-3.016,14.978-9.219c0.068-4.155-8.775-12.909-17.256-13.88c-0.286-0.032-0.589-0.049-0.903-0.049
		c-4.688,0-12.221,3.563-21.756,8.075c-14.729,6.969-33.061,15.642-50.338,15.643c-4.404,0.001-8.567-0.583-12.374-1.733
		c-2.599-0.786-4.402-2.952-5.213-6.265c-1.953-7.973,2.344-22.177,14.335-33.899c7.746-7.572,26.004-35.075,28.858-44.631
		c4.018-13.453,3.645-28.529,3.397-38.505c-0.062-2.474-0.114-4.611-0.096-6.391c0.003-0.348,0.073-3.841,0.149-7.646
		c0.067-3.373,0.139-6.991,0.174-8.887l0.045-0.259c0.268-1.733,1.081-7.008,2.929-12.46c0.077-0.22,0.923-0.546,2.021-0.732
		c-0.482,1.861-1.734,6.782-2.072,8.997c-0.806,5.278-2.56,34.118-1.398,44.112c0.364,3.135-1.04,15.662-3.917,24.56
		c-2.132,6.593-11.318,20.276-18.026,30.267c-3.786,5.64-6.777,10.094-7.861,12.246c-1.648,3.268-5.797,19.297-2.204,25.134
		c0.893,1.449,2.19,2.185,3.857,2.185c0.511,0,1.063-0.071,1.641-0.213c9.664-2.356,15.942-5.342,21.481-7.976
		c7.003-3.33,12.535-5.961,21.986-5.961c0.777,0,1.58,0.018,2.412,0.055c1.261,0.057,2.74,0.092,4.378,0.131
		c10.992,0.263,29.39,0.702,36.285,8.902c2.288,2.721,3.139,6.161,2.531,10.227c-1.304,8.712-4.853,10.069-7.201,10.967l-0.15,0.058
		c-1.061,0.407-2.561,0.604-4.586,0.604c-3.214,0-7.265-0.51-11.182-1.004c-3.968-0.499-7.716-0.972-10.744-0.972
		c-1.452,0-2.609,0.109-3.537,0.336c-0.352,0.085-1.039,0.104-1.991,0.132c-4.476,0.127-14.958,0.425-33.747,8.367
		C37.34,176.743,35.438,177.1,33.351,177.1z"/>
	<path id="XMLID_170_" class="st1" d="M52.361,5.546c-0.567,2.217-1.58,6.291-1.881,8.262c-0.808,5.293-2.566,34.216-1.401,44.246
		c0.312,2.686-0.868,14.986-3.896,24.348c-2.111,6.527-11.275,20.176-17.966,30.143c-3.796,5.654-6.794,10.119-7.892,12.298
		c-1.316,2.61-6.031,19.373-2.183,25.622c0.976,1.584,2.457,2.422,4.282,2.422c0.551,0,1.143-0.076,1.759-0.227
		c9.714-2.369,16.017-5.366,21.578-8.01c6.947-3.303,12.434-5.913,21.772-5.913c0.774,0,1.578,0.018,2.389,0.055
		c1.268,0.057,2.785,0.093,4.391,0.131c10.907,0.261,29.162,0.697,35.912,8.724c2.222,2.643,3.013,5.859,2.419,9.831
		c-1.261,8.425-4.512,9.667-6.886,10.574l-0.149,0.057c-0.989,0.379-2.472,0.572-4.408,0.572c-3.183,0-7.218-0.508-11.119-1
		c-3.984-0.502-7.747-0.976-10.806-0.976c-1.493,0-2.688,0.114-3.655,0.35c-0.301,0.073-1.001,0.093-1.887,0.118
		c-4.504,0.128-15.053,0.428-33.926,8.407c-1.602,0.677-3.438,1.021-5.458,1.021c-4.786,0-9.377-1.892-11.338-2.7
		c-0.487-0.201-0.782-0.322-0.989-0.379c-0.955-0.263-2.167-0.381-3.93-0.381c-0.893,0-1.816,0.029-2.793,0.059
		c-0.977,0.03-1.988,0.062-2.965,0.062c-2.372,0-5.211-0.168-6.582-1.412c1.237-0.74,5.875-1.698,10.556-1.698
		c2.264,0,4.008,0.243,4.783,0.666c1.69,0.922,4.664,1.115,6.861,1.115c4.733,0,12.261-0.929,19.199-3.536
		c0.588-0.221,1.206-0.46,1.854-0.709c4.963-1.914,11.761-4.535,18.832-4.535c1.587,0,3.141,0.133,4.621,0.396
		c7.825,1.392,15.983,2.68,22.634,2.68c3.789,0,15.319,0,15.478-9.71c0.073-4.422-8.821-13.369-17.699-14.385
		c-0.302-0.035-0.625-0.052-0.962-0.052c-4.802,0-12.379,3.585-21.972,8.124c-14.683,6.947-32.957,15.594-50.12,15.594
		c-4.356,0-8.47-0.576-12.229-1.712c-3.058-0.925-4.338-3.721-4.873-5.905c-1.919-7.835,2.342-21.831,14.199-33.423
		c7.779-7.604,26.118-35.238,28.988-44.846c4.041-13.529,3.666-28.653,3.418-38.662c-0.061-2.469-0.114-4.601-0.096-6.372
		c0.003-0.338,0.073-3.807,0.146-7.479c0.067-3.379,0.14-7.038,0.177-8.983l0.04-0.259c0.264-1.712,1.064-6.899,2.874-12.275
		C51.614,5.773,51.947,5.652,52.361,5.546 M53.719,4.292c0,0-2.868,0.284-3.167,1.166c-1.997,5.891-2.79,11.546-3,12.87
		c-0.075,4.037-0.317,15.882-0.324,16.538c-0.093,9.133,1.688,28.124-3.28,44.758c-2.875,9.625-21.181,37.038-28.729,44.417
		c-17.065,16.683-18.771,38.021-8.917,41c4.047,1.224,8.244,1.755,12.518,1.755c28.534,0,60.377-23.721,72.094-23.718
		c0.294,0,0.578,0.015,0.846,0.046c8.455,0.967,16.875,9.563,16.813,13.375c-0.108,6.6-5.996,8.727-14.478,8.727
		c-6.454,0-14.411-1.233-22.459-2.664c-1.609-0.286-3.212-0.412-4.796-0.412c-8.177,0-15.837,3.353-21.038,5.308
		c-6.212,2.335-13.532,3.473-18.847,3.473c-2.881,0-5.174-0.334-6.382-0.993c-1.013-0.553-2.996-0.788-5.262-0.788
		c-5.603,0-12.932,1.437-11.592,3.059c1.426,1.726,4.419,2.052,7.618,2.052c1.945,0,3.966-0.121,5.758-0.121
		c1.415,0,2.687,0.075,3.664,0.345c0.84,0.232,6.541,3.115,12.593,3.115c1.963,0,3.964-0.304,5.847-1.1
		c22.952-9.703,33.484-7.945,35.661-8.475c0.936-0.228,2.097-0.321,3.419-0.321c6.074,0,15.519,1.975,21.925,1.975
		c1.918,0,3.565-0.177,4.766-0.638c2.422-0.929,6.292-2.229,7.667-11.417c3.11-20.783-31.132-19.274-43.667-19.833
		c-0.84-0.037-1.649-0.056-2.434-0.056c-17.102,0-21.776,8.633-43.587,13.951c-0.55,0.134-1.056,0.198-1.522,0.198
		c-8.823,0-3.047-22.943-1.207-26.594c3.071-6.091,22.61-32.359,25.917-42.583c2.938-9.083,4.294-21.703,3.938-24.771
		c-1.134-9.757,0.545-38.403,1.396-43.979C51.883,11.252,53.719,4.292,53.719,4.292L53.719,4.292z M47.574,16.994
		c0,0,0,0.002-0.001,0.006c-0.062,1.123-0.095,1.619-0.077,1.619c0.008,0,0.026-0.101,0.056-0.29
		C47.568,17.495,47.576,16.994,47.574,16.994L47.574,16.994z"/>
</g>
<g id="XMLID_11_">
	<path id="XMLID_167_" class="st1" d="M118.032,167.99c-2.892,0-3.612-0.888-4.31-1.746c-0.576-0.708-1.228-1.511-2.909-1.618
		c-0.297-0.019-0.409-0.117-0.467-0.19c-0.374-0.465-0.152-1.901,0.083-3.422c0.494-3.2,1.17-7.582-1.577-11.351
		c-1.555-2.132-15.704-20.831-33.543-20.831l-0.186,0.001c-1.958,0.015-5.332,0.647-9.239,1.381
		c-5.841,1.097-13.111,2.461-19.201,2.461c-6.957,0-10.867-1.754-11.953-5.361c-2.076-6.895,1.557-12.232,5.403-17.885
		c2.467-3.625,5.018-7.375,6.174-11.717c1.834-6.893,5.47-17.489,8.987-27.736C57.369,63.93,59.329,58.22,60.8,53.61
		c1.69-5.298,6.958-23.551,3.758-35.991c-1.898-7.379-1.241-10.29-0.355-11.432c0.373-0.481,0.854-0.725,1.428-0.725
		c0.237,0,0.486,0.046,0.683,0.126l0.184,0.075l0.185-0.072c0.004,0,0.008,0,0.012,0c0.228,0,0.548,0.071,0.95,0.509
		c1.687,1.833,4.172,9.047,1.859,36.76C69.087,47.844,61.359,79,60.389,80.712c-5.313,9.372-11.942,31.646-9.106,37.059
		c0.522,0.996,1.266,1.263,1.799,1.311c8.881,0.8,14.829,2.856,19.172,4.357c1.865,0.646,3.476,1.202,4.892,1.508
		c1.554,0.337,3.135,0.523,4.809,0.721c3.07,0.362,6.55,0.772,10.625,2.261c4.786,1.748,28.588,15.828,28.87,21.058
		c0.104,1.945-0.048,3.625-0.209,5.403c-0.31,3.415-0.631,6.947,0.838,12.709c0.021,0.085,0.006,0.126-0.031,0.174
		C121.954,167.392,121.322,167.99,118.032,167.99z"/>
	<path id="XMLID_164_" class="st1" d="M65.631,5.963L65.631,5.963c0.255,0,0.443,0.068,0.495,0.089l0.367,0.149l0.283-0.11
		c0.06,0.01,0.239,0.063,0.5,0.347c1.313,1.428,4.111,7.83,1.729,36.381c-0.407,4.878-8.083,35.888-9.051,37.646
		c-5.494,9.69-12.07,31.896-9.114,37.538c0.626,1.196,1.541,1.517,2.197,1.576c8.821,0.794,14.735,2.839,19.054,4.332
		c1.88,0.65,3.504,1.212,4.95,1.524c1.576,0.341,3.168,0.529,4.853,0.727c3.044,0.359,6.494,0.766,10.515,2.234
		c5.464,1.995,28.288,15.897,28.542,20.614c0.103,1.909-0.048,3.572-0.208,5.332c-0.31,3.42-0.631,6.955,0.803,12.688
		c-0.335,0.174-1.336,0.458-3.514,0.458c-2.653,0-3.241-0.723-3.922-1.561c-0.608-0.749-1.365-1.681-3.265-1.802
		c-0.063-0.004-0.1-0.013-0.111-0.013c-0.001,0-0.002,0-0.003,0c-0.222-0.339,0.027-1.953,0.193-3.025
		c0.479-3.1,1.202-7.786-1.667-11.721c-2.561-3.513-16.236-21.035-33.963-21.036l-0.174,0.001c-2.003,0.014-5.236,0.621-9.33,1.389
		c-5.82,1.092-13.064,2.452-19.107,2.452c-6.707,0-10.46-1.637-11.474-5.005c-2.007-6.666,1.56-11.909,5.337-17.46
		c2.491-3.66,5.066-7.445,6.244-11.87c1.829-6.875,5.462-17.461,8.976-27.698c2.076-6.05,4.038-11.765,5.51-16.38
		c1.701-5.33,6.999-23.698,3.766-36.267c-1.945-7.561-1.113-10.138-0.445-11.001C64.875,6.137,65.213,5.963,65.631,5.963
		 M65.63,4.963c-1.724,0-4.37,1.845-1.557,12.781c3.361,13.064-2.775,32.658-3.75,35.714c-3.949,12.375-11.572,33.122-14.5,44.125
		c-2.927,11-15.072,18.25-11.572,29.875c1.311,4.353,6.3,5.716,12.431,5.716c10.243,0,23.672-3.807,28.444-3.841
		c0.062,0,0.121-0.001,0.183-0.001c17.288,0.001,30.96,17.636,33.14,20.626c4.667,6.4-1.048,14.951,2.333,15.167
		c3.381,0.216,1.735,3.365,7.25,3.365c0.75,0,4.917,0,4.53-1.516c-2.209-8.669-0.305-12.271-0.614-18.016
		c-0.303-5.625-24.549-19.803-29.197-21.5c-6.312-2.305-11.073-2.043-15.5-3c-4.625-1-11.353-4.725-24.125-5.875
		c-5.553-0.5,1.378-26.479,7.697-37.625c1.115-1.967,8.768-33.149,9.178-38.056c2.982-35.734-2.038-37.813-3.247-37.813
		c-0.159,0-0.253,0.036-0.253,0.036C66.281,5.036,65.974,4.963,65.63,4.963L65.63,4.963z"/>
</g>
<g id="XMLID_1_">
	<path id="XMLID_162_" class="st1" d="M125.829,169.037c-0.136-0.149-0.428-0.882-0.381-2.816
		c0.315-12.94-2.868-15.397-4.067-16.322c-0.074-0.058-0.137-0.105-0.187-0.149c-5.941-5.209-9.508-11.663-9.544-11.729
		c-0.062-0.097-4.048-6.014-11.225-11.704c-3.315-2.629-7.089-5.195-10.739-7.677c-10.044-6.831-19.532-13.282-20.24-20.895
		c-0.635-6.821,1.016-9.783,2.928-13.212c1.852-3.323,3.951-7.089,4.324-15.019c0.167-3.556-1.097-6.198-2.56-9.257
		c-2-4.182-4.268-8.921-3.638-17.652c0.4-5.547,2.481-9.377,4.494-13.081c1.857-3.418,3.612-6.647,3.612-10.733
		c0-5.766-2.28-10.081-3.248-11.653c1.003-0.185,2.874-0.485,4.435-0.485c1.38,0,1.917,0.237,2.115,0.378
		c2.485,1.778,3.335,11.253,3.044,13.872c-0.613,5.518-2.246,10.59-3.686,15.065c-1.507,4.681-2.808,8.723-2.64,12.181
		c0.138,2.829,0.958,4.399,1.827,6.062c1.248,2.388,2.663,5.095,2.663,12.516c0,6.709-1.369,13.412-2.47,18.798
		c-1.252,6.13-2.242,10.973-0.791,13.359c3.489,5.74,14.556,15.489,32.895,28.977c0.827,0.608,1.372,1.009,1.553,1.154
		c2.189,1.754,11.331,19.023,14.736,25.66c0.042,0.823,0.275,6.397-0.896,9.786C126.784,168.394,125.985,168.961,125.829,169.037z"
		/>
	<path id="XMLID_159_" class="st1" d="M79.793,6.153v1c1.356,0,1.757,0.237,1.823,0.285c2.188,1.566,3.159,10.522,2.838,13.41
		c-0.608,5.468-2.232,10.514-3.665,14.967c-1.522,4.727-2.836,8.81-2.663,12.358c0.143,2.939,0.988,4.557,1.883,6.27
		c1.221,2.337,2.606,4.986,2.606,12.284c0,6.659-1.364,13.334-2.46,18.698c-1.324,6.481-2.281,11.164-0.728,13.719
		c3.524,5.798,14.637,15.597,33.031,29.124c0.792,0.583,1.365,1.004,1.532,1.137c1.88,1.506,9.879,16.295,14.554,25.402
		c0.051,1.091,0.228,6.303-0.874,9.491c-0.733,2.121-1.285,3.208-1.635,3.757c-0.062-0.398-0.107-0.989-0.087-1.822
		c0.322-13.194-3.008-15.763-4.261-16.731c-0.064-0.049-0.119-0.091-0.163-0.129c-5.87-5.146-9.4-11.529-9.435-11.593l-0.021-0.039
		l-0.024-0.036c-0.163-0.244-4.069-6.041-11.308-11.781c-3.33-2.641-7.113-5.213-10.77-7.7
		c-9.506-6.465-19.336-13.149-20.022-20.526c-0.62-6.667,0.996-9.566,2.867-12.923c1.879-3.371,4.009-7.192,4.387-15.239
		c0.173-3.681-1.178-6.505-2.608-9.495c-1.974-4.126-4.211-8.802-3.59-17.401c0.392-5.439,2.447-9.221,4.435-12.878
		c1.889-3.476,3.672-6.758,3.672-10.971c0-5.234-1.844-9.308-2.953-11.284c1.021-0.168,2.429-0.354,3.64-0.355V6.153 M79.793,6.153
		c-2.327,0-5.261,0.639-5.261,0.639s3.574,4.917,3.574,12c0,8.21-7.317,12.858-8.104,23.777
		c-1.098,15.223,6.583,18.711,6.197,26.921c-0.75,15.968-8.52,14.644-7.25,28.301c1,10.75,18.945,19.226,31.167,28.917
		c7.199,5.708,11.097,11.552,11.097,11.552s3.57,6.531,9.653,11.865c0.79,0.692,4.417,2.417,4.083,16.083
		c-0.05,2.062,0.261,3.339,0.862,3.339c0.638,0,1.603-1.444,2.805-4.923c1.309-3.787,0.917-10.083,0.917-10.083
		s-12.151-23.701-14.917-25.917c-1.523-1.22-28.415-20.263-34.333-30c-2.583-4.25,3.333-17.75,3.333-31.898
		c0-12.741-4.167-11.936-4.49-18.602c-0.324-6.667,5.074-15.917,6.324-27.167c0.28-2.519-0.455-12.333-3.25-14.333
		C81.71,6.275,80.809,6.153,79.793,6.153L79.793,6.153z"/>
</g>
<g id="XMLID_13_">
	<path id="XMLID_157_" class="st1" d="M133.133,168.076c-0.052-0.009-0.089-0.048-0.092-0.099
		c-0.153-2.119-0.826-9.367-3.066-13.667c-2.569-4.931-14.797-25.715-14.92-25.923c-0.68-0.974-15.761-22.417-22.734-30.221
		c-3.708-4.149-3.752-20.2-3.784-31.92c-0.012-4.513-0.023-8.41-0.224-11.066c-0.088-1.16-0.431-1.766-0.794-2.407
		c-0.644-1.137-1.446-2.551-1.446-8.273c0-3.146,0.713-6.293,1.402-9.335c0.918-4.052,1.868-8.241,1.217-12.613
		c-0.676-4.542-0.558-12.324-0.506-14.601c0.001-0.045,0.03-0.081,0.079-0.095l3.703-1.078c0.007,0,0.014,0,0.02,0
		c0.054,0,0.091,0.018,0.111,0.062c0.632,1.365,2.679,6.259,2.474,11.894c-0.1,2.736-0.433,5.309-0.756,7.797
		c-0.483,3.727-0.9,6.945-0.359,9.572c0.383,1.86,0.411,10.224,0.44,19.079c0.038,11.438,0.078,23.266,0.813,26.3
		c2.081,8.58,15.119,28.451,23.712,39.821c8.101,10.717,19.37,40.274,20.628,43.609l-0.517,3.946
		c-0.009,0.063-0.062,0.096-0.108,0.096L133.133,168.076z"/>
	<path id="XMLID_154_" class="st1" d="M91.783,7.352c0.735,1.663,2.479,6.198,2.291,11.362c-0.099,2.713-0.431,5.274-0.752,7.751
		c-0.489,3.771-0.911,7.029-0.353,9.737c0.373,1.811,0.402,10.539,0.43,18.98c0.038,11.467,0.078,23.325,0.827,26.417
		c2.216,9.136,15.774,29.386,23.799,40.005c8.068,10.675,19.651,41.082,20.523,43.389l-0.455,3.4l-4.578-0.759
		c-0.194-2.468-0.914-9.36-3.098-13.553c-2.526-4.849-14.426-25.086-14.931-25.944l-0.04-0.066l-0.023-0.033
		c-0.638-0.908-15.698-22.334-22.729-30.203c-3.581-4.007-3.625-19.948-3.656-31.588c-0.012-4.523-0.023-8.428-0.225-11.103
		c-0.096-1.272-0.484-1.955-0.858-2.616c-0.615-1.085-1.381-2.436-1.381-8.027c0-3.091,0.675-6.07,1.39-9.225
		c0.928-4.097,1.888-8.333,1.224-12.797c-0.653-4.392-0.551-12.078-0.507-14.222L91.783,7.352 M92,6.273
		c-0.057,0-0.114,0.008-0.171,0.025l-3.702,1.078c-0.255,0.074-0.433,0.298-0.439,0.564c-0.045,1.962-0.181,10.035,0.511,14.686
		c1.125,7.563-2.625,14.499-2.625,21.875c0,9,2.015,7.718,2.242,10.718c0.74,9.783-1.117,37.407,4.133,43.282
		c7.028,7.864,22.213,29.479,22.657,30.111c0.009,0.013,0.011,0.017,0.02,0.031c0.39,0.663,12.383,21.055,14.907,25.9
		c2.214,4.25,2.872,11.549,3.011,13.472c0.02,0.281,0.23,0.509,0.508,0.555l5.277,0.875c0.034,0.006,0.067,0.008,0.101,0.008
		c0.3,0,0.563-0.222,0.604-0.529l0.521-3.897c0.013-0.1,0.003-0.198-0.033-0.293c-0.877-2.325-12.463-32.841-20.697-43.734
		c-8.125-10.75-21.5-30.875-23.625-39.637C93.888,75.956,94.824,40.25,93.949,36s0.875-10.375,1.125-17.25
		c0.207-5.705-1.823-10.616-2.52-12.122C92.451,6.407,92.233,6.273,92,6.273L92,6.273z"/>
</g>
<g id="XMLID_12_">
	<path id="XMLID_152_" class="st1" d="M145.181,168.092c-0.951,0-2.242-0.383-2.724-0.588c-0.017-0.448-0.136-1.361-0.518-3.349
		l-0.036-0.185l-0.149-0.116c-0.064-0.05-0.649-0.488-1.291-0.488c-0.329,0-0.838,0.113-1.156,0.731
		c-3.268-5.099-19.5-39.99-19.989-43.174c-0.769-4.996-5.541-14.505-10.156-23.7c-4.253-8.474-8.651-17.236-8.588-20.213
		c0.188-8.895-1.303-25.511-2.618-40.171c-1.297-14.471-2.523-28.139-1.78-30.538c0.018-0.047,0.044-0.062,0.126-0.062
		c0.286,0,0.777,0.164,1.298,0.337c0.863,0.287,1.937,0.645,3.082,0.645c0.824,0,1.588-0.191,2.273-0.567
		c0.774,1.034,1.329,8.136,1.701,12.887c0.337,4.316,0.656,8.393,1.125,9.977c0.201,0.677,0.124,3.646,0.027,7.404
		c-0.327,12.62-1.006,38.88,6.582,53.559c0.567,1.097,1.167,2.246,1.788,3.434c3.953,7.567,8.872,16.984,10.916,23.978
		c0.948,3.242,2.05,5.582,3.115,7.846c0.883,1.876,1.718,3.647,2.388,5.788c0.485,1.549,1.655,2.368,3.383,2.368
		c2.984,0,7.029-2.43,8.663-3.498c0.446,5.646,2.842,35.828,3.191,37.46c0.015,0.067,0.01,0.103,0.007,0.109
		C145.841,167.964,145.728,168.092,145.181,168.092z"/>
	<path id="XMLID_149_" class="st1" d="M96.577,6.784c0.242,0.059,0.568,0.167,0.866,0.267c0.897,0.298,2.014,0.67,3.239,0.67
		c0.72,0,1.4-0.133,2.029-0.395c0.632,1.825,1.116,8.021,1.447,12.253c0.354,4.532,0.66,8.445,1.145,10.08
		c0.178,0.601,0.095,3.831,0.006,7.25c-0.327,12.661-1.009,39.008,6.638,53.8c0.567,1.097,1.167,2.246,1.788,3.434
		c3.942,7.548,8.849,16.941,10.879,23.887c0.959,3.28,2.069,5.638,3.143,7.919c0.876,1.86,1.703,3.617,2.363,5.724
		c0.549,1.753,1.92,2.719,3.86,2.719c2.736,0,6.278-1.924,8.23-3.131c0.585,7.395,2.599,32.66,3.079,36.328
		c-0.033,0.001-0.068,0.002-0.108,0.002c-0.729,0-1.698-0.251-2.245-0.44c-0.055-0.573-0.201-1.505-0.506-3.091l-0.071-0.371
		l-0.298-0.231c-0.128-0.099-0.806-0.593-1.598-0.593c-0.206,0-0.668,0.042-1.09,0.375c-3.872-6.613-19.104-39.419-19.561-42.393
		c-0.781-5.074-5.571-14.618-10.203-23.848c-4.226-8.419-8.596-17.125-8.535-19.979c0.188-8.922-1.303-25.553-2.619-40.226
		C97.268,23.564,96.042,9.9,96.577,6.784 M96.303,5.74c-0.301,0-0.511,0.112-0.604,0.413c-1.542,4.976,4.75,53.071,4.375,70.847
		c-0.132,6.26,17.25,34.25,18.75,44c0.58,3.769,19.535,44.098,20.679,44.098c0.028,0,0.045-0.023,0.051-0.071
		c0.122-0.91,0.514-1.161,0.91-1.161c0.49,0,0.986,0.384,0.986,0.384s0.625,3.25,0.5,3.5c-0.08,0.161,1.903,0.842,3.232,0.842
		c0.74,0,1.278-0.211,1.143-0.842c-0.375-1.75-3.25-38.25-3.25-38.25s-5.468,3.892-9.094,3.892c-1.349,0-2.443-0.539-2.906-2.017
		c-1.486-4.75-3.773-7.717-5.5-13.625c-2.375-8.125-8.496-19.292-12.739-27.5c-9.886-19.125-5.637-57.717-6.574-60.875
		c-1.134-3.826-1.406-23.272-3.271-23.272c-0.054,0-0.11,0.016-0.166,0.05c-0.707,0.418-1.434,0.568-2.141,0.568
		C98.873,6.721,97.191,5.74,96.303,5.74L96.303,5.74z"/>
</g>
<g id="XMLID_15_">
	<path id="XMLID_148_" class="st1" d="M133.301,133.064c-0.803,0-1.37-0.188-1.686-0.56c-0.315-0.37-0.411-0.963-0.283-1.764
		c0.254-1.588,0.467-2.806,0.635-3.62l0.03-0.145l-5.032-12.848l-0.184-0.084c-0.084-0.038-0.838-0.374-1.485-0.374
		c-0.342,0-0.579,0.095-0.741,0.212c-1.171-2.436-3.611-7.796-4.677-10.254c-0.218-0.505-0.388-1.034-0.505-1.573
		c0.008-0.021,0.018-0.045,0.029-0.071c0.268-0.663,1.082-2.678,0.135-5.045c-5.846-14.614-8.352-38.349-9.556-49.756
		c-0.288-2.73-0.497-4.703-0.665-5.762c-0.445-2.795-1.261-4.517-1.917-5.901c-1.082-2.281-1.796-3.788,0.015-8.465
		c1.616-4.175,0.529-10.896-0.189-15.344c-0.277-1.713-0.516-3.192-0.466-3.795c0.027-0.326,0.11-1.317,1.486-1.317
		c0.085,0,0.163,0.004,0.23,0.01c0.323,0.558,1.107,1.248,1.789,1.784c0.486,0.689,0.834,7.605,1.203,14.926
		c0.749,14.866,1.88,37.332,5.745,53.422c1.108,4.611,6.078,14.561,6.289,14.982l0.023,0.045l9.219,11.711l7.83,28.139l-4.673,0.969
		C135.822,132.61,134.53,133.064,133.301,133.064z"/>
	<path id="XMLID_144_" class="st1" d="M108.195,7.1c0.286,0.396,0.784,0.908,1.639,1.59c0.456,1.174,0.786,7.727,1.135,14.655
		c0.75,14.885,1.882,37.378,5.758,53.514c1.121,4.666,6.116,14.666,6.328,15.089l0.046,0.091l0.063,0.08l9.126,11.593l7.66,27.527
		l-4.149,0.86l-0.068,0.014l-0.064,0.023c-0.012,0.004-1.229,0.429-2.367,0.429c-0.216,0-0.466-0.016-0.696-0.068l0.283-4.359
		c0.168-2.597-0.019-2.797-0.28-3.075l-0.315-0.326h-0.433c-0.07,0-0.135,0.005-0.197,0.014l-4.158-10.616l-0.148-0.377
		l-0.368-0.168c-0.153-0.07-0.955-0.419-1.692-0.419c-0.187,0-0.353,0.022-0.498,0.06c-1.2-2.525-3.39-7.332-4.461-9.802
		c-0.186-0.428-0.334-0.875-0.442-1.332c0.311-0.776,1.094-2.873,0.106-5.344c-5.82-14.549-8.321-38.238-9.522-49.623
		c-0.289-2.738-0.498-4.716-0.668-5.788c-0.456-2.866-1.289-4.624-1.959-6.036c-1.063-2.241-1.704-3.594,0.029-8.07
		c1.665-4.301,0.565-11.103-0.162-15.604c-0.26-1.611-0.506-3.132-0.461-3.674C107.293,7.532,107.396,7.116,108.195,7.1
		 M131.845,130.701l0.697,1.78c-0.221-0.057-0.419-0.151-0.547-0.301c-0.269-0.316-0.241-0.914-0.169-1.361
		C131.833,130.78,131.839,130.741,131.845,130.701 M108.245,6.099c-0.716,0-1.857,0.245-1.984,1.776
		c-0.188,2.25,2.91,13.258,0.688,19c-3,7.75,0.706,7.275,1.875,14.625c0.875,5.5,3,37.5,10.25,55.625
		c1.049,2.624-0.244,4.764-0.215,4.908c0.125,0.618,0.312,1.215,0.562,1.794c1.321,3.048,5.221,11.598,5.378,11.598
		c0.013,0,0.001-0.056-0.039-0.176c-0.281-0.847,0.071-1.078,0.537-1.078c0.557,0,1.277,0.329,1.277,0.329l4.904,12.521
		c0.194-0.943,0.312-1.284,0.381-1.284c0.182,0,0.03,2.336,0.03,2.336l-0.412-1.051c-0.158,0.768-0.366,1.934-0.639,3.641
		c-0.374,2.339,1.026,2.902,2.462,2.902c1.335,0,2.701-0.487,2.701-0.487l5.197-1.077l-8-28.75l-9.25-11.75
		c0,0-5.143-10.267-6.25-14.875c-6.125-25.5-5.375-67.25-7.125-68.625s-1.75-1.847-1.75-1.847S108.581,6.099,108.245,6.099
		L108.245,6.099z"/>
</g>
<g id="XMLID_16_">
	<path id="XMLID_141_" class="st1" d="M131.799,105.125c-1.345,0-3.575-0.956-5.292-3.054c-1.531-1.871-3.132-5.206-2.069-10.473
		c0.506-2.509-2.246-16.863-5.161-32.06c-2.189-11.415-4.453-23.218-4.957-28.338c-0.465-4.717-0.469-8.758-0.473-12.323
		c-0.004-3.515-0.007-6.559-0.499-8.987l0.827-3.015c0.808,0.289,2.715,1.343,4.313,5.07c0.967,2.257,1.098,8.646,1.249,16.045
		c0.191,9.358,0.408,19.964,2.373,26.281c0.361,1.16,1.229,5.889,2.328,11.876c2.34,12.748,5.875,32.011,8.306,37.309
		c0.254,0.555,0.3,1.007,0.129,1.274C132.71,104.986,132.329,105.125,131.799,105.125z"/>
	<path id="XMLID_138_" class="st1" d="M114.503,7.574c0.857,0.473,2.277,1.655,3.526,4.57c0.929,2.167,1.065,8.818,1.208,15.859
		c0.192,9.391,0.409,20.035,2.395,26.419c0.352,1.131,1.218,5.849,2.314,11.822c2.344,12.77,5.886,32.069,8.343,37.423
		c0.23,0.502,0.195,0.745,0.162,0.796c-0.027,0.042-0.205,0.163-0.653,0.163c-1.231,0-3.291-0.898-4.904-2.87
		c-1.462-1.787-2.991-4.983-1.966-10.057c0.491-2.43-1.622-13.807-5.16-32.255c-2.187-11.402-4.448-23.193-4.95-28.291
		c-0.463-4.693-0.467-8.721-0.471-12.275c-0.004-3.486-0.007-6.511-0.486-8.967L114.503,7.574 M113.824,6.273l-0.989,3.602
		c0.997,4.726,0.041,11.755,0.989,21.375c1.143,11.602,11,55.916,10.125,60.25c-1.937,9.595,4.631,14.126,7.851,14.126
		c1.357,0,2.12-0.805,1.399-2.376c-3.539-7.713-9.458-45.417-10.611-49.125c-3.514-11.298-1.389-37.125-3.639-42.375
		S113.824,6.273,113.824,6.273L113.824,6.273z"/>
</g>
<g id="XMLID_14_">
	<path id="XMLID_136_" class="st1" d="M133.701,103.19c0.062-1.89,0.808-26.932-2.057-32.511
		c-1.311-2.553-2.445-14.412-3.646-26.967c-1.369-14.31-2.783-29.093-4.767-34.331c0.808-0.355,2.597-1.076,3.834-1.076
		c0.3,0,0.695,0.045,0.872,0.261c0.507,0.733,1.326,8.098,2.118,15.22c0.845,7.604,1.803,16.222,2.928,22.796l0.071,0.416
		L133.478,47c1.798,0,3.26-1.405,3.328-3.198c0.33-8.831,0.974-29.53,0.075-36.776c1.082,0.456,3.16,1.569,4.918,3.901
		c0.198,0.323-0.058,2.181-0.381,4.532c-0.766,5.569-2.359,17.156-2.359,37.486c0,2.584,0.252,4.891,0.601,8.083
		c0.531,4.855,1.332,12.193,1.789,26.155c0.104,3.188-0.038,6.806-0.188,10.637c-0.335,8.518-0.752,19.098,1.267,31.435
		l-1.338,0.848L133.701,103.19z"/>
	<path id="XMLID_133_" class="st1" d="M137.474,7.86c1.07,0.565,2.559,1.58,3.873,3.297c0.093,0.477-0.147,2.223-0.424,4.234
		c-0.767,5.58-2.364,17.19-2.364,37.554c0,2.611,0.253,4.929,0.604,8.138c0.53,4.848,1.33,12.174,1.786,26.116
		c0.104,3.17-0.038,6.779-0.189,10.601c-0.333,8.465-0.746,18.963,1.22,31.21l-0.489,0.31l-7.288-26.19
		c0.076-2.413,0.773-27.054-2.115-32.678c-1.267-2.468-2.45-14.83-3.593-26.785c-1.334-13.948-2.711-28.344-4.636-34.011
		c0.936-0.384,2.286-0.849,3.206-0.85c0.285,0,0.418,0.047,0.464,0.068c0.491,1.146,1.272,8.169,2.027,14.965
		c0.846,7.612,1.805,16.239,2.932,22.824l0.142,0.838h0.847c2.069,0,3.75-1.616,3.827-3.68
		C137.623,35.32,138.231,15.837,137.474,7.86 M136.267,6.273c1.086,6.401,0.337,29.543,0.039,37.51
		c-0.057,1.521-1.306,2.717-2.828,2.717c-0.001,0-0.002-0.001-0.003-0.002c-2.344-13.695-4.027-36.873-5.152-38.248
		c-0.263-0.322-0.717-0.445-1.259-0.445c-1.772,0-4.477,1.32-4.477,1.32c3.861,8.875,5.723,56.158,8.611,61.783
		c2.888,5.625,2,32.342,2,32.342l7.69,27.636l2.185-1.386c-3-18-0.786-31.982-1.125-42.334c-0.75-22.916-2.39-27.665-2.39-34.221
		c0-30.819,3.604-41.041,2.64-42.319C139.559,7.125,136.267,6.273,136.267,6.273L136.267,6.273z"/>
</g>
<path id="XMLID_17_" class="st0" d="M118.699,4.292"/>
</svg>
